# File produced by Open Asset Import Library (http://www.assimp.sf.net)
# (assimp v3.1.22885447)

mtllib Hex%20plat.mtl

# vertex positions
v -5.295391 -0.544079 2.945066
v -5.146626 -0.337334 2.862329
v -5.052163 -0.337334 -3.025945
v -5.198195 -0.544077 -3.113410
v -4.948895 -1.399858 -2.964091
v -5.041412 -1.399858 2.803818
v -5.242329 -1.139462 2.915555
v -5.146111 -1.139462 -3.082213
v 5.198195 -0.544077 3.113404
v 5.295391 -0.544079 -2.945062
v 5.146626 -0.337334 -2.862325
v 5.052163 -0.337334 3.025939
v -0.092534 -1.399858 5.767911
v -0.089434 -1.396902 5.574662
v 4.783075 -1.396902 2.864775
v 4.948895 -1.399858 2.964085
v 5.041412 -1.399858 -2.803815
v 0.092534 -1.399858 -5.767907
v 0.096218 -1.139462 -5.997767
v 5.242329 -1.139462 -2.915551
v -0.098023 -0.870699 6.110102
v -0.096218 -1.139462 5.997772
v 5.146111 -1.139462 3.082209
v 5.242487 -0.870699 3.139934
v 0.098023 -0.870699 -6.110097
v -5.242487 -0.870699 -3.139939
v 0.089434 -1.396902 -5.574657
v -4.783075 -1.396902 -2.864781
v -4.872509 -1.396902 2.709878
v -4.896008 -0.176388 2.722947
v -4.806150 -0.176388 -2.878596
v 0.089857 -0.176388 -5.601541
v 0.094463 -0.337334 -5.888271
v 4.896008 -0.176388 -2.722943
v 4.806150 -0.176388 2.878591
v -0.094463 -0.337334 5.888275
v -0.089857 -0.176388 5.601543
v 0.097196 -0.544079 -6.058474
v -5.340512 -0.870699 2.970160
v 5.340512 -0.870699 -2.970156
v -0.097196 -0.544079 6.058477
v 4.872509 -1.396902 -2.709875
v 0.000000 -0.177908 0.000000
v -0.087982 -44.541420 5.484165
v 4.705429 -44.541420 2.818270
v -4.705429 -44.541420 -2.818275
v -4.793411 -44.541420 2.665888
v 4.793411 -44.541420 -2.665884
v 0.087982 -44.541420 -5.484161

# UV coordinates
vt 0.253161 0.783508
vt 0.248388 0.786117
vt 0.139951 0.718522
vt 0.140188 0.713090
vt 0.140861 0.695507
vt 0.268663 0.775181
vt 0.263733 0.777827
vt 0.140678 0.701100
vt 0.130801 0.979786
vt 0.017831 0.909363
vt 0.022606 0.906757
vt 0.131042 0.974353
vt 0.268938 0.929642
vt 0.270991 0.930919
vt 0.130047 1.000000
vt 0.130125 0.997369
vt 0.002328 0.917687
vt 0.002059 0.763236
vt 0.006526 0.766007
vt 0.007258 0.915041
vt 0.260587 0.924432
vt 0.264470 0.926870
vt 0.130308 0.991776
vt 0.130500 0.986927
vt 0.010409 0.768445
vt 0.140487 0.705949
vt 0.000005 0.761958
vt 0.140940 0.692876
vt 0.270991 0.773953
vt 0.239629 0.790905
vt 0.139512 0.728491
vt 0.033909 0.783109
vt 0.023071 0.776351
vt 0.031366 0.901973
vt 0.131485 0.964385
vt 0.247925 0.916525
vt 0.237087 0.909767
vt 0.017224 0.772706
vt 0.259450 0.780109
vt 0.011541 0.912759
vt 0.253772 0.920171
vt 0.000000 0.918915
vt 0.135498 0.846438
vt 0.001090 0.000000
vt 0.894707 0.005623
vt 0.894111 0.119227
vt 0.000484 0.115478
vt 0.000121 0.461918
vt 0.893754 0.460043
vt 0.894112 0.573649
vt 0.000485 0.577398
vt 0.893754 0.232832
vt 0.000121 0.230958
vt 0.894707 0.687253
vt 0.001090 0.692876
vt 0.893635 0.346438
vt 0.000000 0.346438

# vertex normals
vn -0.941417 0.336906 -0.015100
vn -0.725609 0.688009 -0.011600
vn -0.794297 -0.607397 -0.012700
vn -0.890178 -0.455389 -0.014300
vn 0.941417 0.336906 0.015100
vn 0.725609 0.688009 0.011600
vn 0.000200 -0.999883 -0.015300
vn -0.013100 -0.999883 -0.007900
vn 0.408199 -0.607399 -0.681499
vn 0.457480 -0.455380 -0.763767
vn -0.386088 -0.607382 -0.694279
vn -0.432687 -0.455387 -0.778077
vn 0.483822 -0.095504 0.869940
vn 0.432687 -0.455387 0.778077
vn -0.483822 -0.095504 -0.869940
vn -0.408199 -0.607399 0.681499
vn -0.457480 -0.455380 0.763767
vn 0.386088 -0.607382 0.694279
vn -0.000200 -0.999883 0.015300
vn 0.013100 -0.999883 0.007900
vn 0.013400 -0.999883 -0.007400
vn -0.543786 0.839179 -0.008700
vn -0.352709 0.688017 -0.634216
vn -0.264297 0.839191 -0.475295
vn 0.543786 0.839179 0.008700
vn 0.372895 0.687990 -0.622591
vn 0.279395 0.839185 -0.466591
vn -0.372895 0.687990 0.622591
vn -0.279395 0.839185 0.466591
vn 0.352709 0.688017 0.634216
vn 0.264297 0.839191 0.475295
vn -0.457585 0.336889 -0.822874
vn -0.511483 -0.095497 0.853971
vn 0.511483 -0.095497 -0.853971
vn 0.457585 0.336889 0.822874
vn -0.483775 0.336882 0.807758
vn 0.483775 0.336882 -0.807758
vn 0.794297 -0.607397 0.012700
vn 0.890178 -0.455389 0.014300
vn -0.013400 -0.999883 0.007400
vn 0.000000 1.000000 0.000000
vn 0.000200 1.000000 0.000100
vn 0.000200 1.000000 -0.000100
vn 0.000000 1.000000 0.000300
vn -0.000200 1.000000 -0.000100
vn -0.000200 1.000000 0.000100
vn 0.000000 1.000000 -0.000300
vn -0.995301 -0.095500 -0.016000
vn 0.486024 -0.001800 0.873943
vn -0.999870 -0.001800 -0.016000
vn 0.999870 -0.001800 0.016000
vn -0.513804 -0.001800 0.857906
vn 0.513804 -0.001800 -0.857906
vn -0.486024 -0.001800 -0.873943
vn 0.995301 -0.095500 0.016000

# Mesh
g Circle.013_Circle.015
usemtl None
f 2/2/2 3/3/2 4/4/1 1/1/1
f 5/5/3 6/6/3 7/7/4 8/8/4
f 9/9/5 10/10/5 11/11/6 12/12/6
f 15/15/8 16/16/8 13/13/7 14/14/7
f 20/20/10 17/17/9 18/18/9 19/19/10
f 19/19/12 18/18/11 5/5/11 8/8/12
f 23/23/14 24/24/13 21/21/13 22/22/14
f 25/25/15 19/19/12 8/8/12 26/26/15
f 13/13/16 22/22/17 7/7/17 6/6/16
f 16/16/18 23/23/14 22/22/14 13/13/18
f 18/18/19 27/27/19 28/28/20 5/5/20
f 14/14/7 13/13/7 6/6/21 29/29/21
f 30/30/22 31/31/22 3/3/2 2/2/2
f 32/32/24 33/33/23 3/3/23 31/31/24
f 12/12/6 11/11/6 34/34/25 35/35/25
f 34/34/27 11/11/26 33/33/26 32/32/27
f 36/36/28 37/37/29 30/30/29 2/2/28
f 12/12/30 35/35/31 37/37/31 36/36/30
f 33/33/23 38/38/32 4/4/32 3/3/23
f 22/22/17 21/21/33 39/39/33 7/7/17
f 40/40/34 20/20/10 19/19/10 25/25/34
f 9/9/35 12/12/30 36/36/30 41/41/35
f 41/41/36 36/36/28 2/2/28 1/1/36
f 11/11/26 10/10/37 38/38/37 33/33/26
f 20/20/39 23/23/39 16/16/38 17/17/38
f 17/17/40 16/16/8 15/15/8 42/42/40
f 17/17/40 42/42/40 27/27/19 18/18/19
f 28/28/20 29/29/21 6/6/21 5/5/20
f 43/43/41 31/31/42 30/30/43
f 43/43/41 32/32/44 31/31/42
f 43/43/41 35/35/45 34/34/46
f 43/43/41 34/34/46 32/32/44
f 43/43/41 30/30/43 37/37/47
f 43/43/41 37/37/47 35/35/45
f 8/8/4 7/7/4 39/39/48 26/26/48
f 45/46/49 15/47/49 14/44/49 44/45/49
f 28/48/50 46/49/50 47/50/50 29/51/50
f 48/52/51 42/53/51 15/47/51 45/46/51
f 44/54/52 14/55/52 29/51/52 47/50/52
f 42/53/53 48/52/53 49/56/53 27/57/53
f 27/57/54 49/56/54 46/49/54 28/48/54
f 38/38/32 25/25/15 26/26/15 4/4/32
f 4/4/1 26/26/48 39/39/48 1/1/1
f 40/40/55 10/10/5 9/9/5 24/24/55
f 24/24/13 9/9/35 41/41/35 21/21/13
f 21/21/33 41/41/36 1/1/36 39/39/33
f 10/10/37 40/40/34 25/25/34 38/38/37
f 40/40/55 24/24/55 23/23/39 20/20/39
